<svg width="43" height="46" viewBox="0 0 43 46" fill="none" xmlns="http://www.w3.org/2000/svg">
<path fill-rule="evenodd" clip-rule="evenodd" d="M42.1815 12.4948V44.8825C42.1815 45.036 42.0571 45.1604 41.9036 45.1604H32.3999C32.3658 37.2812 30.5974 19.6132 27.7503 13.6306C27.6727 13.4676 27.4669 13.4349 27.3412 13.5646C26.2108 14.7306 24.1512 17.7289 23.8043 19.0297C22.7281 18.6919 20.4592 18.219 18.8816 19.0297C18.3672 17.7466 17.0929 15.0332 15.8992 13.8605C15.7809 13.7442 15.5906 13.7744 15.5106 13.9197C15.0441 14.7664 14.2259 16.6857 13.7327 19.3856C13.1776 22.4238 13.0389 24.0354 13.0389 24.4615C11.0061 24.6562 6.76522 25.4109 6.06409 26.8716C5.18767 28.6975 6.39274 31.9475 8.10905 33.5177C9.48209 34.7739 10.6531 35.3558 11.0669 35.4897L10.3065 45.1604H0.277959C0.124446 45.1604 0 45.036 0 44.8825V12.4964C0 12.3974 0.0526861 12.3059 0.138309 12.2561L21.1656 0.0376283C21.2528 -0.0129894 21.3604 -0.0125081 21.4471 0.0388864L42.0454 12.2557C42.1298 12.3058 42.1815 12.3967 42.1815 12.4948Z" fill="#2A2746"/>
<path d="M22.6141 22.7734C22.6141 23.5689 22.1351 24.2138 21.5441 24.2138C20.9532 24.2138 20.4741 23.5689 20.4741 22.7734C20.4741 21.9779 20.9532 21.333 21.5441 21.333C22.1351 21.333 22.6141 21.9779 22.6141 22.7734Z" fill="#2A2746"/>
<path d="M16.8524 22.7734C16.8524 23.5689 16.3734 24.2138 15.7824 24.2138C15.1915 24.2138 14.7124 23.5689 14.7124 22.7734C14.7124 21.9779 15.1915 21.333 15.7824 21.333C16.3734 21.333 16.8524 21.9779 16.8524 22.7734Z" fill="#2A2746"/>
<path d="M9.38294 29.8936C7.96239 29.8936 6.8108 29.2487 6.8108 28.4531C6.8108 27.6576 7.96239 27.0127 9.38294 27.0127C10.8035 27.0127 11.9551 27.6576 11.9551 28.4531C11.9551 29.2487 10.8035 29.8936 9.38294 29.8936Z" fill="#2A2746"/>
<path fill-rule="evenodd" clip-rule="evenodd" d="M14.9389 36.7776C13.4194 36.7922 11.8568 36.4781 10.5996 36.0001L10.6984 35.7403C11.9254 36.2068 13.4536 36.5139 14.9362 36.4996C16.4206 36.4853 17.843 36.1492 18.8747 35.3467L19.0454 35.5661C17.9476 36.4199 16.4566 36.7629 14.9389 36.7776Z" fill="#2A2746" stroke="#2A2746"/>
</svg>
