<svg width="338" height="334" viewBox="0 0 338 334" fill="none" xmlns="http://www.w3.org/2000/svg">
<path d="M165.518 3.1892C167.049 0.481035 170.951 0.481027 172.482 3.18919L199.562 51.08C201.159 53.9042 204.712 54.9473 207.582 53.4349L256.256 27.7874C259.008 26.337 262.29 28.4461 262.114 31.5523L259.004 86.4814C258.82 89.7206 261.245 92.5189 264.477 92.7983L319.29 97.5371C322.39 97.805 324.01 101.354 322.183 103.872L289.869 148.399C287.964 151.025 288.491 154.69 291.059 156.673L334.608 190.293C337.071 192.194 336.516 196.056 333.617 197.186L282.36 217.175C279.337 218.354 277.799 221.722 278.888 224.779L297.347 276.606C298.391 279.537 295.837 282.485 292.787 281.869L238.86 270.974C235.679 270.331 232.565 272.333 231.828 275.492L219.337 329.073C218.631 332.103 214.887 333.202 212.655 331.035L173.179 292.713C170.851 290.453 167.149 290.453 164.821 292.713L125.345 331.035C123.113 333.202 119.369 332.103 118.663 329.073L106.172 275.492C105.435 272.333 102.321 270.331 99.1404 270.974L45.213 281.869C42.1634 282.485 39.6088 279.537 40.6526 276.606L59.1122 224.779C60.2007 221.722 58.6626 218.354 55.6399 217.175L4.38261 197.186C1.48407 196.056 0.928903 192.194 3.39156 190.293L46.941 156.673C49.5091 154.69 50.036 151.025 48.1305 148.399L15.8171 103.872C13.9899 101.354 15.6104 97.805 18.71 97.5371L73.5227 92.7983C76.755 92.5189 79.1797 89.7206 78.9963 86.4814L75.8861 31.5523C75.7102 28.4461 78.992 26.337 81.7444 27.7874L130.418 53.4349C133.288 54.9473 136.841 53.9042 138.438 51.08L165.518 3.1892Z" stroke="url(#paint0_linear)" stroke-width="2"/>
<defs>
<linearGradient id="paint0_linear" x1="-29.9671" y1="-115.832" x2="484.191" y2="85.7061" gradientUnits="userSpaceOnUse">
<stop stop-color="#FF9330"/>
<stop offset="0.973958" stop-color="#FF5D01"/>
<stop offset="1" stop-color="#FF5C00"/>
</linearGradient>
</defs>
</svg>
